<?xml version="1.0" encoding="UTF-8"?>
<svg width="426px" height="427px" viewBox="0 0 426 427" version="1.1" xmlns="http://www.w3.org/2000/svg" xmlns:xlink="http://www.w3.org/1999/xlink">
    <!-- Generator: Sketch 42 (36781) - http://www.bohemiancoding.com/sketch -->
    <title>icon</title>
    <desc>Created with Sketch.</desc>
    <defs></defs>
    <g id="Identidad-ActualidadBlog-2017" stroke="none" stroke-width="1" fill="none" fill-rule="evenodd">
        <g id="WindowsNoticias" transform="translate(-44.000000, -46.000000)" fill="#009BF3">
            <g id="icon" transform="translate(44.000000, 46.000000)">
                <path d="M195,33.5860674 C271.78125,21.8610112 348.70875,10.8170787 425.63625,0.162359551 C425.685,67.4476404 425.63625,134.68427 425.685,201.969551 C348.80625,202.261461 271.9275,203.429101 195,203.67236 C194.95125,146.944494 194.95125,90.2652809 195,33.5860674" id="Fill-1"></path>
                <path d="M0,60.7337079 C57.8175,51.8304494 115.87875,44.1434831 173.94,36.894382 C173.98875,92.6978652 173.98875,148.452697 174.0375,204.25618 C116.025,204.207528 58.0125,205.083258 0,204.937303 L0,60.7337079" id="Fill-3"></path>
                <path d="M0,222.500562 C57.96375,222.305955 115.9275,223.230337 173.89125,223.133034 C173.89125,279.082472 174.0375,335.03191 173.94,390.981348 C116.025,382.418652 58.0125,374.926292 0,367.093371 L0,222.500562" id="Fill-16"></path>
                <path d="M194.65875,224.738539 L425.63625,224.738539 C425.73375,291.829213 425.63625,358.919888 425.63625,426.059213 C348.855,414.577416 271.9275,403.922697 195,393.511236 C194.9025,337.269888 194.75625,281.028539 194.65875,224.738539" id="Fill-18"></path>
            </g>
        </g>
    </g>
</svg>